<svg xmlns="http://www.w3.org/2000/svg" viewBox="0 0 169.61 81.77"><defs><style>.cls-1{fill:#f90}.cls-1,.cls-2{fill-rule:evenodd}.cls-2,.cls-3{fill:#232f3e}</style></defs><g id="Layer_2" data-name="Layer 2"><g id="Layer_1-2" data-name="Layer 1"><path class="cls-1" d="M105.17 70.63C95.32 77.9 81 81.77 68.73 81.77a66 66 0 01-44.52-17c-.92-.83-.1-2 1-1.33a89.61 89.61 0 0044.55 11.84 88.62 88.62 0 0034-7c1.65-.66 3.04 1.14 1.41 2.35z"/><path class="cls-1" d="M109.27 65.94c-1.26-1.61-8.33-.76-11.51-.38-1 .12-1.11-.73-.24-1.33 5.64-4 14.88-2.82 16-1.49s-.28 10.61-5.57 15c-.81.68-1.59.32-1.23-.58 1.15-2.95 3.82-9.6 2.55-11.22z"/><path class="cls-2" d="M98 36.23v-3.85a1 1 0 011-1h17.26a1 1 0 011 1v3.3a5.42 5.42 0 01-1.3 2.42L107 50.87a19.14 19.14 0 019.87 2.13 1.76 1.76 0 01.92 1.5v4.11c0 .57-.62 1.22-1.27.88a19.87 19.87 0 00-18.23 0c-.6.32-1.23-.33-1.23-.89v-3.9a4.64 4.64 0 01.64-2.65l10.36-14.86H99a1 1 0 01-1-.96zM35.1 60.28h-5.25a1 1 0 01-.94-.89V32.45a1 1 0 011-1h4.89a1 1 0 011 .91v3.54h.1c1.27-3.4 3.68-5 6.91-5s5.34 1.59 6.81 5a7.75 7.75 0 0113.33-2c1.67 2.27 1.32 5.56 1.32 8.45v17a1 1 0 01-1 1H58a1 1 0 01-.94-1V45a34.43 34.43 0 00-.15-5 2.74 2.74 0 00-3.09-2.33 3.48 3.48 0 00-3.14 2.21 16.32 16.32 0 00-.5 5.12v14.31a1 1 0 01-1 1h-5.26a1 1 0 01-.94-1V45c0-3 .49-7.43-3.23-7.43s-3.64 4.34-3.64 7.43v14.31a1 1 0 01-1.01.97zM132.12 30.91c7.79 0 12 6.69 12 15.2 0 8.22-4.65 14.74-12 14.74-7.64 0-11.81-6.69-11.81-15s4.22-14.94 11.81-14.94zm0 5.5c-3.87 0-4.12 5.27-4.12 8.56s0 10.32 4.07 10.32 4.26-5.67 4.26-9.13a24.91 24.91 0 00-.73-7.16 3.29 3.29 0 00-3.43-2.59zM154.23 60.28H149a1 1 0 01-.94-1v-27a1 1 0 011-.88h4.87a1 1 0 01.93.75v4.12h.1c1.47-3.69 3.53-5.44 7.15-5.44a6.88 6.88 0 016.13 3.18c1.37 2.15 1.37 5.78 1.37 8.39v17a1 1 0 01-1 .85h-5.26a1 1 0 01-.93-.85V44.8c0-2.95.34-7.26-3.28-7.26a3.44 3.44 0 00-3 2.15 12 12 0 00-.83 5.1v14.52a1 1 0 01-1.08.97zM84.29 47.41c0 2 0 3.75-1 5.57a4.26 4.26 0 01-3.63 2.39c-2 0-3.19-1.53-3.19-3.81 0-4.47 4-5.28 7.81-5.28zm5.29 12.8a1.09 1.09 0 01-1.24.12 12.83 12.83 0 01-3-3.5c-2.88 2.94-4.92 3.82-8.66 3.82-4.42 0-7.86-2.73-7.86-8.18a8.92 8.92 0 015.6-8.58c2.85-1.25 6.83-1.48 9.87-1.82v-.68c0-1.25.1-2.73-.64-3.81a3.51 3.51 0 00-2.95-1.36 4 4 0 00-4.22 3.15 1.11 1.11 0 01-.91 1l-5.09-.55a.92.92 0 01-.78-1.1c1.17-6.17 6.74-8 11.74-8 2.55 0 5.89.68 7.91 2.61 2.55 2.39 2.31 5.57 2.31 9v8.18c0 2.46 1 3.54 2 4.86a1 1 0 010 1.4c-1.07.9-3 2.55-4 3.49zM15.47 47.41c0 2 0 3.75-1 5.57a4.26 4.26 0 01-3.63 2.39c-2 0-3.19-1.53-3.19-3.81 0-4.47 4-5.28 7.81-5.28zm5.29 12.8a1.09 1.09 0 01-1.24.12 12.77 12.77 0 01-3-3.5c-2.88 2.94-4.92 3.82-8.65 3.82-4.43 0-7.87-2.72-7.87-8.18a8.92 8.92 0 015.6-8.58c2.85-1.25 6.83-1.48 9.87-1.82v-.68c0-1.25.1-2.73-.64-3.81a3.51 3.51 0 00-2.95-1.36 4 4 0 00-4.22 3.15 1.11 1.11 0 01-.91 1l-5.09-.55a.92.92 0 01-.78-1.1c1.17-6.17 6.74-8 11.74-8 2.55 0 5.89.68 7.91 2.61 2.55 2.39 2.31 5.57 2.31 9v8.18c0 2.46 1 3.54 2 4.86a1 1 0 010 1.4c-1.07.9-3 2.55-4 3.49z"/><path class="cls-3" d="M32.46 16.57a3.47 3.47 0 01-2.5-.89 3.14 3.14 0 01-.96-2.39 3.17 3.17 0 011.14-2.56 4.65 4.65 0 013.08-1 11.89 11.89 0 012.77.37V8.69A2.17 2.17 0 0035.48 7a2.75 2.75 0 00-1.84-.48 10.2 10.2 0 00-3 .44 3.16 3.16 0 01-.64.15q-.26 0-.26-.4v-.57a.77.77 0 01.09-.42.77.77 0 01.35-.24A7.41 7.41 0 0131.94 5 11.8 11.8 0 0134 4.8a4.59 4.59 0 013.08.87 3.34 3.34 0 011 2.65v7.52a.39.39 0 01-.44.44h-.94a.44.44 0 01-.48-.42l-.11-.73a6 6 0 01-1.75 1.06 5.2 5.2 0 01-1.9.38zm.54-1.65a4.46 4.46 0 001.52-.29 5.72 5.72 0 001.48-.84v-2.24a10 10 0 00-2.33-.29q-2.49 0-2.49 1.91a1.72 1.72 0 00.46 1.29 1.81 1.81 0 001.36.46zM44.53 16.28a.89.89 0 01-.45-.09 1 1 0 01-.3-.51l-3.89-9.76q0-.13-.1-.26a.63.63 0 01-.05-.24q0-.29.33-.29h1.3a.88.88 0 01.46.09 1.13 1.13 0 01.29.51l3 8.58 3-8.58a1.12 1.12 0 01.29-.51.88.88 0 01.46-.09h1.23q.33 0 .33.29a.64.64 0 01-.06.24c0 .09-.07.18-.1.26l-3.87 9.77a1.05 1.05 0 01-.3.51.89.89 0 01-.45.09zM55.07 16.57a3.47 3.47 0 01-2.5-.89 3.14 3.14 0 01-.94-2.39 3.17 3.17 0 011.14-2.56 4.65 4.65 0 013.08-1 11.89 11.89 0 012.77.37V8.69A2.17 2.17 0 0058.1 7a2.75 2.75 0 00-1.84-.48 10.2 10.2 0 00-3 .44 3.16 3.16 0 01-.64.15q-.26 0-.26-.4v-.57a.77.77 0 01.09-.42.77.77 0 01.35-.24A7.41 7.41 0 0154.55 5a11.8 11.8 0 012.08-.19 4.59 4.59 0 013.08.87 3.34 3.34 0 011 2.65v7.52a.39.39 0 01-.44.44h-.95a.44.44 0 01-.48-.42l-.11-.73A6 6 0 0157 16.19a5.2 5.2 0 01-1.93.38zm.53-1.65a4.46 4.46 0 001.52-.29 5.72 5.72 0 001.52-.84v-2.24a10 10 0 00-2.33-.29q-2.49 0-2.49 1.91a1.72 1.72 0 00.46 1.29 1.81 1.81 0 001.32.46zM64.91 3.15a1.35 1.35 0 01-1-.36 1.29 1.29 0 01-.36-1 1.3 1.3 0 01.36-1 1.56 1.56 0 012 0 1.29 1.29 0 01.36 1 1.29 1.29 0 01-.36 1 1.35 1.35 0 01-1 .36zm-.66 13.13a.39.39 0 01-.44-.44V5.57a.39.39 0 01.44-.44h1.3a.39.39 0 01.44.44v10.27a.39.39 0 01-.44.44zM71.49 16.39a2.3 2.3 0 01-1.78-.67 2.74 2.74 0 01-.62-1.92V.44a.39.39 0 01.44-.44h1.3a.39.39 0 01.44.44v13.22a1.08 1.08 0 00.21.74.9.9 0 00.69.23h.52a.34.34 0 01.3.11.58.58 0 01.08.33v.7a.52.52 0 01-.1.34.65.65 0 01-.34.19 4.89 4.89 0 01-1.14.09zM78.2 16.57a3.47 3.47 0 01-2.5-.89 3.14 3.14 0 01-.94-2.39 3.17 3.17 0 011.14-2.56 4.65 4.65 0 013.08-1 11.89 11.89 0 012.77.37V8.69A2.17 2.17 0 0081.23 7a2.75 2.75 0 00-1.84-.48 10.2 10.2 0 00-3 .44 3.16 3.16 0 01-.64.15q-.26 0-.26-.4v-.57a.77.77 0 01.09-.42.77.77 0 01.42-.24A7.41 7.41 0 0177.69 5a11.8 11.8 0 012.08-.19 4.59 4.59 0 013.08.87 3.34 3.34 0 011 2.65v7.52a.39.39 0 01-.44.44h-.95a.44.44 0 01-.48-.42l-.11-.73a6 6 0 01-1.75 1.06 5.2 5.2 0 01-1.92.37zm.53-1.65a4.46 4.46 0 001.52-.29 5.72 5.72 0 001.52-.84v-2.24a10 10 0 00-2.33-.29q-2.49 0-2.49 1.91a1.72 1.72 0 00.46 1.29 1.81 1.81 0 001.32.46zM92.5 16.52a5 5 0 01-3.5-1.41l-.15.73a.46.46 0 01-.51.44h-.95a.39.39 0 01-.44-.44V.44a.39.39 0 01.41-.44h1.3a.39.39 0 01.44.44v5.74a5.44 5.44 0 013.56-1.38A4.08 4.08 0 0196 6.34a6.58 6.58 0 011.23 4.22A6.75 6.75 0 0196 14.89a4.19 4.19 0 01-3.5 1.63zm-.5-1.76q3 0 3-4.09a5.29 5.29 0 00-.74-3.1 2.61 2.61 0 00-2.25-1 4.91 4.91 0 00-2.95 1v6.14A4.72 4.72 0 0092 14.76zM102.21 16.39a2.3 2.3 0 01-1.78-.67 2.74 2.74 0 01-.62-1.92V.44a.39.39 0 01.44-.44h1.3a.39.39 0 01.44.44v13.22a1.08 1.08 0 00.21.74.9.9 0 00.69.23h.52a.34.34 0 01.3.11.58.58 0 01.08.33v.7a.52.52 0 01-.1.34.65.65 0 01-.34.19 4.89 4.89 0 01-1.14.09zM110.69 16.61a5.31 5.31 0 01-4.09-1.5 6.29 6.29 0 01-1.39-4.42 6.3 6.3 0 011.39-4.35 4.93 4.93 0 013.87-1.55A4.23 4.23 0 01113.68 6a4.64 4.64 0 011.12 3.33 9.55 9.55 0 01-.11 1.43.61.61 0 01-.14.35.47.47 0 01-.32.09h-6.91a4 4 0 00.94 2.79 3.73 3.73 0 002.76.9 8.72 8.72 0 001.27-.09 10.41 10.41 0 001.53-.37l.26-.08a.68.68 0 01.2 0q.29 0 .29.4v.62a.71.71 0 01-.09.41 1 1 0 01-.37.25 7.57 7.57 0 01-1.57.46 9.7 9.7 0 01-1.85.12zm2.11-6.89a5.19 5.19 0 000-.57 2.9 2.9 0 00-.63-2 2.37 2.37 0 00-1.84-.68 2.8 2.8 0 00-2.16.83 3.88 3.88 0 00-.88 2.45zM125.92 16.57a3.47 3.47 0 01-2.5-.89 3.14 3.14 0 01-.94-2.39 3.17 3.17 0 011.14-2.56 4.65 4.65 0 013.08-1 11.89 11.89 0 012.77.37V8.69a2.17 2.17 0 00-.53-1.69 2.75 2.75 0 00-1.84-.48 10.2 10.2 0 00-3 .44 3.16 3.16 0 01-.64.15q-.26 0-.26-.4v-.57a.77.77 0 01.09-.42.77.77 0 01.35-.24A7.41 7.41 0 01125.4 5a11.8 11.8 0 012.08-.19 4.59 4.59 0 013.08.87 3.34 3.34 0 011 2.65v7.52a.39.39 0 01-.44.44h-.95a.44.44 0 01-.48-.42l-.11-.73a6 6 0 01-1.75 1.06 5.2 5.2 0 01-1.91.37zm.53-1.65a4.46 4.46 0 001.52-.29 5.72 5.72 0 001.52-.84v-2.24a10 10 0 00-2.33-.29q-2.49 0-2.49 1.91a1.72 1.72 0 00.46 1.29 1.81 1.81 0 001.31.46zM138.54 16.43q-3.12 0-3.12-3.12V6.84h-1.58a.39.39 0 01-.44-.44v-.55a.48.48 0 01.1-.33.66.66 0 01.38-.15l1.61-.2.29-2.73a.42.42 0 01.46-.44h.92a.39.39 0 01.44.44v2.69h2.86a.39.39 0 01.44.44v.83a.39.39 0 01-.44.44h-2.86v6.36a1.49 1.49 0 00.36 1.14 1.84 1.84 0 001.24.33 6.07 6.07 0 001-.11 2.87 2.87 0 01.44-.07.27.27 0 01.24.1.59.59 0 01.07.32v.59a.83.83 0 01-.09.43.63.63 0 01-.35.23 6.84 6.84 0 01-1.97.27z"/></g></g></svg>