<svg xmlns="http://www.w3.org/2000/svg" viewBox="0 0 169.61 81.77"><defs><style>.cls-1{fill:#f90;}.cls-1,.cls-2{fill-rule:evenodd;}.cls-2,.cls-3{fill:#232f3e;}</style></defs><title>amazon</title><g id="Layer_2" data-name="Layer 2"><g id="Layer_1-2" data-name="Layer 1"><path class="cls-1" d="M105.17,70.63C95.32,77.9,81,81.77,68.73,81.77a66,66,0,0,1-44.52-17c-.92-.83-.1-2,1-1.33A89.61,89.61,0,0,0,69.76,75.28a88.62,88.62,0,0,0,34-7C105.41,67.62,106.8,69.42,105.17,70.63Z"/><path class="cls-1" d="M109.27,65.94c-1.26-1.61-8.33-.76-11.51-.38-1,.12-1.11-.73-.24-1.33,5.64-4,14.88-2.82,16-1.49s-.28,10.61-5.57,15c-.81.68-1.59.32-1.23-.58C107.87,74.21,110.54,67.56,109.27,65.94Z"/><path class="cls-2" d="M98,36.23V32.38a1,1,0,0,1,1-1h17.26a1,1,0,0,1,1,1v3.3a5.42,5.42,0,0,1-1.3,2.42L107,50.87A19.14,19.14,0,0,1,116.87,53a1.76,1.76,0,0,1,.92,1.5v4.11c0,.57-.62,1.22-1.27.88a19.87,19.87,0,0,0-18.23,0c-.6.32-1.23-.33-1.23-.89v-3.9a4.64,4.64,0,0,1,.64-2.65l10.36-14.86H99A1,1,0,0,1,98,36.23Z"/><path class="cls-2" d="M35.1,60.28H29.85a1,1,0,0,1-.94-.89V32.45a1,1,0,0,1,1-1h4.89a1,1,0,0,1,1,.91V35.9h.1c1.27-3.4,3.68-5,6.91-5s5.34,1.59,6.81,5a7.75,7.75,0,0,1,13.33-2c1.67,2.27,1.32,5.56,1.32,8.45v17a1,1,0,0,1-1,1H58a1,1,0,0,1-.94-1V45a34.43,34.43,0,0,0-.15-5,2.74,2.74,0,0,0-3.09-2.33,3.48,3.48,0,0,0-3.14,2.21A16.32,16.32,0,0,0,50.18,45V59.31a1,1,0,0,1-1,1H43.92a1,1,0,0,1-.94-1V45c0-3,.49-7.43-3.23-7.43S36.11,41.91,36.11,45V59.31A1,1,0,0,1,35.1,60.28Z"/><path class="cls-2" d="M132.12,30.91c7.79,0,12,6.69,12,15.2,0,8.22-4.65,14.74-12,14.74-7.64,0-11.81-6.69-11.81-15S124.53,30.91,132.12,30.91Zm0,5.5c-3.87,0-4.12,5.27-4.12,8.56s0,10.32,4.07,10.32,4.26-5.67,4.26-9.13A24.91,24.91,0,0,0,135.6,39,3.29,3.29,0,0,0,132.17,36.41Z"/><path class="cls-2" d="M154.23,60.28H149a1,1,0,0,1-.94-1v-27a1,1,0,0,1,1-.88h4.87a1,1,0,0,1,.93.75v4.12h.1c1.47-3.69,3.53-5.44,7.15-5.44a6.88,6.88,0,0,1,6.13,3.18c1.37,2.15,1.37,5.78,1.37,8.39v17a1,1,0,0,1-1,.85h-5.26a1,1,0,0,1-.93-.85V44.8c0-2.95.34-7.26-3.28-7.26a3.44,3.44,0,0,0-3,2.15,12,12,0,0,0-.83,5.1V59.31A1,1,0,0,1,154.23,60.28Z"/><path class="cls-2" d="M84.29,47.41c0,2,0,3.75-1,5.57a4.26,4.26,0,0,1-3.63,2.39c-2,0-3.19-1.53-3.19-3.81,0-4.47,4-5.28,7.81-5.28Zm5.29,12.8a1.09,1.09,0,0,1-1.24.12,12.83,12.83,0,0,1-3-3.5c-2.88,2.94-4.92,3.82-8.66,3.82-4.42,0-7.86-2.73-7.86-8.18a8.92,8.92,0,0,1,5.6-8.58c2.85-1.25,6.83-1.48,9.87-1.82v-.68c0-1.25.1-2.73-.64-3.81a3.51,3.51,0,0,0-2.95-1.36,4,4,0,0,0-4.22,3.15,1.11,1.11,0,0,1-.91,1l-5.09-.55a.92.92,0,0,1-.78-1.1c1.17-6.17,6.74-8,11.74-8,2.55,0,5.89.68,7.91,2.61,2.55,2.39,2.31,5.57,2.31,9v8.18c0,2.46,1,3.54,2,4.86a1,1,0,0,1,0,1.4c-1.07.9-3,2.55-4,3.49Z"/><path class="cls-2" d="M15.47,47.41c0,2,0,3.75-1,5.57a4.26,4.26,0,0,1-3.63,2.39c-2,0-3.19-1.53-3.19-3.81,0-4.47,4-5.28,7.81-5.28Zm5.29,12.8a1.09,1.09,0,0,1-1.24.12,12.77,12.77,0,0,1-3-3.5c-2.88,2.94-4.92,3.82-8.65,3.82C3.44,60.65,0,57.93,0,52.47a8.92,8.92,0,0,1,5.6-8.58c2.85-1.25,6.83-1.48,9.87-1.82v-.68c0-1.25.1-2.73-.64-3.81a3.51,3.51,0,0,0-2.95-1.36,4,4,0,0,0-4.22,3.15,1.11,1.11,0,0,1-.91,1l-5.09-.55a.92.92,0,0,1-.78-1.1c1.17-6.17,6.74-8,11.74-8,2.55,0,5.89.68,7.91,2.61,2.55,2.39,2.31,5.57,2.31,9v8.18c0,2.46,1,3.54,2,4.86a1,1,0,0,1,0,1.4c-1.07.9-3,2.55-4,3.49Z"/><path class="cls-3" d="M32.46,16.57a3.47,3.47,0,0,1-2.5-.89A3.14,3.14,0,0,1,29,13.29a3.17,3.17,0,0,1,1.14-2.56,4.65,4.65,0,0,1,3.08-1,11.89,11.89,0,0,1,2.77.37V8.69A2.17,2.17,0,0,0,35.48,7a2.75,2.75,0,0,0-1.84-.48,10.2,10.2,0,0,0-3,.44,3.16,3.16,0,0,1-.64.15q-.26,0-.26-.4V6.14a.77.77,0,0,1,.09-.42.77.77,0,0,1,.35-.24A7.41,7.41,0,0,1,31.94,5,11.8,11.8,0,0,1,34,4.8a4.59,4.59,0,0,1,3.08.87,3.34,3.34,0,0,1,1,2.65v7.52a.39.39,0,0,1-.44.44H36.7a.44.44,0,0,1-.48-.42l-.11-.73a6,6,0,0,1-1.75,1.06A5.2,5.2,0,0,1,32.46,16.57ZM33,14.92a4.46,4.46,0,0,0,1.52-.29A5.72,5.72,0,0,0,36,13.79V11.55a10,10,0,0,0-2.33-.29q-2.49,0-2.49,1.91a1.72,1.72,0,0,0,.46,1.29A1.81,1.81,0,0,0,33,14.92Z"/><path class="cls-3" d="M44.53,16.28a.89.89,0,0,1-.45-.09,1,1,0,0,1-.3-.51L39.89,5.92q0-.13-.1-.26a.63.63,0,0,1-.05-.24q0-.29.33-.29h1.3a.88.88,0,0,1,.46.09,1.13,1.13,0,0,1,.29.51l3,8.58,3-8.58a1.12,1.12,0,0,1,.29-.51.88.88,0,0,1,.46-.09H50.1q.33,0,.33.29a.64.64,0,0,1-.06.24c0,.09-.07.18-.1.26L46.4,15.69a1.05,1.05,0,0,1-.3.51.89.89,0,0,1-.45.09Z"/><path class="cls-3" d="M55.07,16.57a3.47,3.47,0,0,1-2.5-.89,3.14,3.14,0,0,1-.94-2.39,3.17,3.17,0,0,1,1.14-2.56,4.65,4.65,0,0,1,3.08-1,11.89,11.89,0,0,1,2.77.37V8.69A2.17,2.17,0,0,0,58.1,7a2.75,2.75,0,0,0-1.84-.48,10.2,10.2,0,0,0-3,.44,3.16,3.16,0,0,1-.64.15q-.26,0-.26-.4V6.14a.77.77,0,0,1,.09-.42.77.77,0,0,1,.35-.24A7.41,7.41,0,0,1,54.55,5a11.8,11.8,0,0,1,2.08-.19,4.59,4.59,0,0,1,3.08.87,3.34,3.34,0,0,1,1,2.65v7.52a.39.39,0,0,1-.44.44h-.95a.44.44,0,0,1-.48-.42l-.11-.73A6,6,0,0,1,57,16.19,5.2,5.2,0,0,1,55.07,16.57Zm.53-1.65a4.46,4.46,0,0,0,1.52-.29,5.72,5.72,0,0,0,1.52-.84V11.55a10,10,0,0,0-2.33-.29q-2.49,0-2.49,1.91a1.72,1.72,0,0,0,.46,1.29A1.81,1.81,0,0,0,55.6,14.92Z"/><path class="cls-3" d="M64.91,3.15a1.35,1.35,0,0,1-1-.36,1.29,1.29,0,0,1-.36-1,1.3,1.3,0,0,1,.36-1,1.56,1.56,0,0,1,2,0,1.29,1.29,0,0,1,.36,1,1.29,1.29,0,0,1-.36,1A1.35,1.35,0,0,1,64.91,3.15Zm-.66,13.13a.39.39,0,0,1-.44-.44V5.57a.39.39,0,0,1,.44-.44h1.3a.39.39,0,0,1,.44.44V15.84a.39.39,0,0,1-.44.44Z"/><path class="cls-3" d="M71.49,16.39a2.3,2.3,0,0,1-1.78-.67,2.74,2.74,0,0,1-.62-1.92V.44A.39.39,0,0,1,69.53,0h1.3a.39.39,0,0,1,.44.44V13.66a1.08,1.08,0,0,0,.21.74.9.9,0,0,0,.69.23l.27,0,.25,0a.34.34,0,0,1,.3.11.58.58,0,0,1,.08.33v.7a.52.52,0,0,1-.1.34.65.65,0,0,1-.34.19A4.89,4.89,0,0,1,71.49,16.39Z"/><path class="cls-3" d="M78.2,16.57a3.47,3.47,0,0,1-2.5-.89,3.14,3.14,0,0,1-.94-2.39,3.17,3.17,0,0,1,1.14-2.56,4.65,4.65,0,0,1,3.08-1,11.89,11.89,0,0,1,2.77.37V8.69A2.17,2.17,0,0,0,81.23,7a2.75,2.75,0,0,0-1.84-.48,10.2,10.2,0,0,0-3,.44,3.16,3.16,0,0,1-.64.15q-.26,0-.26-.4V6.14a.77.77,0,0,1,.09-.42A.77.77,0,0,1,76,5.48,7.41,7.41,0,0,1,77.69,5a11.8,11.8,0,0,1,2.08-.19,4.59,4.59,0,0,1,3.08.87,3.34,3.34,0,0,1,1,2.65v7.52a.39.39,0,0,1-.44.44h-.95a.44.44,0,0,1-.48-.42l-.11-.73a6,6,0,0,1-1.75,1.06A5.2,5.2,0,0,1,78.2,16.57Zm.53-1.65a4.46,4.46,0,0,0,1.52-.29,5.72,5.72,0,0,0,1.52-.84V11.55a10,10,0,0,0-2.33-.29q-2.49,0-2.49,1.91a1.72,1.72,0,0,0,.46,1.29A1.81,1.81,0,0,0,78.73,14.92Z"/><path class="cls-3" d="M92.5,16.52A5,5,0,0,1,89,15.11l-.15.73a.46.46,0,0,1-.51.44h-.95a.39.39,0,0,1-.44-.44V.44A.39.39,0,0,1,87.36,0h1.3a.39.39,0,0,1,.44.44V6.18A5.44,5.44,0,0,1,92.66,4.8,4.08,4.08,0,0,1,96,6.34a6.58,6.58,0,0,1,1.23,4.22A6.75,6.75,0,0,1,96,14.89,4.19,4.19,0,0,1,92.5,16.52ZM92,14.76q3,0,3-4.09a5.29,5.29,0,0,0-.74-3.1,2.61,2.61,0,0,0-2.25-1,4.91,4.91,0,0,0-2.95,1v6.14A4.72,4.72,0,0,0,92,14.76Z"/><path class="cls-3" d="M102.21,16.39a2.3,2.3,0,0,1-1.78-.67,2.74,2.74,0,0,1-.62-1.92V.44a.39.39,0,0,1,.44-.44h1.3a.39.39,0,0,1,.44.44V13.66a1.08,1.08,0,0,0,.21.74.9.9,0,0,0,.69.23l.27,0,.25,0a.34.34,0,0,1,.3.11.58.58,0,0,1,.08.33v.7a.52.52,0,0,1-.1.34.65.65,0,0,1-.34.19A4.89,4.89,0,0,1,102.21,16.39Z"/><path class="cls-3" d="M110.69,16.61a5.31,5.31,0,0,1-4.09-1.5,6.29,6.29,0,0,1-1.39-4.42,6.3,6.3,0,0,1,1.39-4.35,4.93,4.93,0,0,1,3.87-1.55A4.23,4.23,0,0,1,113.68,6a4.64,4.64,0,0,1,1.12,3.33,9.55,9.55,0,0,1-.11,1.43.61.61,0,0,1-.14.35.47.47,0,0,1-.32.09h-6.91a4,4,0,0,0,.94,2.79,3.73,3.73,0,0,0,2.76.9,8.72,8.72,0,0,0,1.27-.09,10.41,10.41,0,0,0,1.53-.37l.26-.08a.68.68,0,0,1,.2,0q.29,0,.29.4v.62a.71.71,0,0,1-.09.41,1,1,0,0,1-.37.25,7.57,7.57,0,0,1-1.57.46A9.7,9.7,0,0,1,110.69,16.61Zm2.11-6.89a5.19,5.19,0,0,0,0-.57,2.9,2.9,0,0,0-.63-2,2.37,2.37,0,0,0-1.84-.68,2.8,2.8,0,0,0-2.16.83,3.88,3.88,0,0,0-.88,2.45Z"/><path class="cls-3" d="M125.92,16.57a3.47,3.47,0,0,1-2.5-.89,3.14,3.14,0,0,1-.94-2.39,3.17,3.17,0,0,1,1.14-2.56,4.65,4.65,0,0,1,3.08-1,11.89,11.89,0,0,1,2.77.37V8.69A2.17,2.17,0,0,0,128.94,7a2.75,2.75,0,0,0-1.84-.48,10.2,10.2,0,0,0-3,.44,3.16,3.16,0,0,1-.64.15q-.26,0-.26-.4V6.14a.77.77,0,0,1,.09-.42.77.77,0,0,1,.35-.24A7.41,7.41,0,0,1,125.4,5a11.8,11.8,0,0,1,2.08-.19,4.59,4.59,0,0,1,3.08.87,3.34,3.34,0,0,1,1,2.65v7.52a.39.39,0,0,1-.44.44h-.95a.44.44,0,0,1-.48-.42l-.11-.73a6,6,0,0,1-1.75,1.06A5.2,5.2,0,0,1,125.92,16.57Zm.53-1.65a4.46,4.46,0,0,0,1.52-.29,5.72,5.72,0,0,0,1.52-.84V11.55a10,10,0,0,0-2.33-.29q-2.49,0-2.49,1.91a1.72,1.72,0,0,0,.46,1.29A1.81,1.81,0,0,0,126.44,14.92Z"/><path class="cls-3" d="M138.54,16.43q-3.12,0-3.12-3.12V6.84h-1.58a.39.39,0,0,1-.44-.44V5.85a.48.48,0,0,1,.1-.33.66.66,0,0,1,.38-.15l1.61-.2.29-2.73a.42.42,0,0,1,.46-.44h.92a.39.39,0,0,1,.44.44V5.13h2.86a.39.39,0,0,1,.44.44V6.4a.39.39,0,0,1-.44.44H137.6V13.2a1.49,1.49,0,0,0,.36,1.14,1.84,1.84,0,0,0,1.24.33,6.07,6.07,0,0,0,1-.11,2.87,2.87,0,0,1,.44-.07.27.27,0,0,1,.24.1.59.59,0,0,1,.07.32v.59a.83.83,0,0,1-.09.43.63.63,0,0,1-.35.23A6.84,6.84,0,0,1,138.54,16.43Z"/></g></g></svg>