<svg xmlns="http://www.w3.org/2000/svg" viewBox="0 0 409.81 512"><defs><style>.cls-1{fill:#3f51b5;}.cls-2{fill:#283593;}.cls-3{fill:#9d27b0;}.cls-4{fill:#6a1b9a;}.cls-5{fill:#673ab7;}.cls-6{fill:#4527a0;}.cls-7{fill:#02a9f4;}</style></defs><title>Asset 1</title><g id="Layer_2" data-name="Layer 2"><g id="Layer_1-2" data-name="Layer 1"><g id="_037---Alien-Greeting" data-name="037---Alien-Greeting"><g id="Icons"><path id="Shape" class="cls-1" d="M384.21,68.27c-17.07,0-34.13,8.53-42.67,42.67-7.42,29.61-29.61,72.36-42.67,95.15a9.47,9.47,0,0,1-17.07-.94A248.58,248.58,0,0,1,269.61,157a181.93,181.93,0,0,1,6.83-88.23C288.13,37.12,281,8.53,247.68,8.53a31.23,31.23,0,0,0-34.13,34.13c0,25.6,18.6,47.7,16,96.26a297,297,0,0,1-9.9,69.8,9.47,9.47,0,0,1-16.38,3c-18.26-23-37.8-70.74-45.74-91.22a53.33,53.33,0,0,1-3.84-17.07c-2-37.12-18.43-52.22-42.5-52.22-25.6,0-42.67,25.6-25.6,51.2a70.91,70.91,0,0,0,18.26,19.37,78.93,78.93,0,0,1,29,34.13c18.6,43,32.94,95.83,28.93,142.76-2.22,28-10.5,34.13-25,34.13-51.2,0-68.27-34.13-93.87-34.13-18.09,0-36.18,9.56-34.13,28.76a28.76,28.76,0,0,0,33.45,23.89c97.28-15.7,139.78,100.95,151,139.95a17.07,17.07,0,0,0,16.38,12.2h63.66a17.07,17.07,0,0,0,17.07-17.07c0-62.63-3-72.53,22.1-107.78,22.7-31.83,20.57-47.27,20.57-88.49V230.4c0-59.73,68.27-110.93,68.27-136.53C401.28,76.8,392.74,68.27,384.21,68.27Z"/><path id="Shape-2" data-name="Shape" class="cls-2" d="M401.28,93.87c0,25.6-68.27,76.8-68.27,136.53v85.33c0,68.27-42.67,59.73-42.67,128V486.4a17.07,17.07,0,0,1-17.07,17.07h-25.6a17.07,17.07,0,0,0,17.07-17.07c0-62.63-3-72.53,22.1-107.78s20.57-43.35,20.57-148.22c0-59.73,68.27-110.93,68.27-136.53a28.25,28.25,0,0,0-8.53-22.19,39.34,39.34,0,0,1,17.07-3.41c8.53,0,17.07,8.53,17.07,25.6Z"/><path id="Shape-3" data-name="Shape" class="cls-3" d="M401.28,93.87c0,25.6-68.27,76.8-68.27,136.53v59.73A135.59,135.59,0,0,1,210.64,215.3a9.39,9.39,0,0,0,9-6.57,297,297,0,0,0,9.9-69.8,181.5,181.5,0,0,0-11-70C205,28.42,221.22,8.53,247.68,8.53,281,8.53,288,37.21,276.86,68.78A181.93,181.93,0,0,0,270,157a248.58,248.58,0,0,0,12.2,47.79,9.47,9.47,0,0,0,17.07.94C311.93,183,334.12,140.2,342,110.59c8.53-34.13,25.6-42.67,42.67-42.67C392.74,68.27,401.28,76.8,401.28,93.87Z"/><path id="Shape-4" data-name="Shape" class="cls-4" d="M401.28,93.87c0,25.6-68.27,76.8-68.27,136.53v59.73a146.6,146.6,0,0,1-25.6-2.22V230.4c0-59.73,68.27-110.93,68.27-136.53a28.25,28.25,0,0,0-8.53-22.19,39.34,39.34,0,0,1,17.07-3.41c8.53,0,17.07,8.53,17.07,25.6Z"/><path id="Shape-5" data-name="Shape" class="cls-5" d="M333,290.13c0,41,2.13,56.75-20.57,88.49a173.48,173.48,0,0,0-150.1-80c4-46.93-10.92-99.75-29.53-143.1a78.93,78.93,0,0,0-29-34.13,70.91,70.91,0,0,1-18.26-19c-17.07-25.6,0-51.2,25.6-51.2,24.06,0,40.53,15.1,42.67,52.31a53.33,53.33,0,0,0,3.84,17.07c7.94,20.48,27.48,68.27,45.74,91.22a9.3,9.3,0,0,0,7.42,3.58A135.59,135.59,0,0,0,333,290.13Z"/><path id="Shape-6" data-name="Shape" class="cls-6" d="M333,290.13c0,41,2.13,56.75-20.57,88.49A184.23,184.23,0,0,0,295.38,357c13.31-23,11.95-43.18,11.95-69.12A146.6,146.6,0,0,0,333,290.13Z"/><path id="Shape-7" data-name="Shape" class="cls-7" d="M230.61,426.67c0,25.6-11.09,62.12-24.92,76.29a17.07,17.07,0,0,1-12.46-11.69c-11.26-39-53.76-155.65-150.87-139.95A28.76,28.76,0,0,1,8.74,327.42c-2-19.2,16-28.76,34.13-28.76,25.6,0,42.67,34.13,93.87,34.13,14.51,0,22.78-6.14,25-34.13,45.23,22.1,68.86,68.27,68.86,128Z"/></g><path id="Shape-8" data-name="Shape" d="M136.74,324.27c-48.9,0-64.09-34.13-93.87-34.13-24.06,0-45.23,14.34-42.67,38.23a37.21,37.21,0,0,0,43.35,31.4C134,345,174.55,458.58,184.79,493.65a25.6,25.6,0,0,0,16.47,17.07c3.75,1.28-1,1.28,72,1.28a25.6,25.6,0,0,0,25.6-25.6c0-58.2-3.75-68.86,20.74-103.08,26.11-41.47,21.93-39.42,21.93-152.92,0-56.92,68.27-106.15,68.27-136.53,0-22.44-12.89-34.13-25.6-34.13-25.6,0-42.67,16.55-51.2,49.15-7.17,28.67-29,70.66-41.47,93.1,0,0,0,.51-1.54,0a222.38,222.38,0,0,1-11.78-46.34,172.71,172.71,0,0,1,6.49-84.05c13.57-38.14,2-71.59-37-71.59s-50.43,34.13-37.21,71.77A174.25,174.25,0,0,1,221,138.5a279.89,279.89,0,0,1-9.56,67.58.85.85,0,0,1-1.45,0c-17.66-22.19-37-69.63-44.54-89a43.35,43.35,0,0,1-3.07-14c-2.9-52.57-33.28-60.42-51.2-60.42-32.34,0-53.59,33.11-32.68,64.43A77.48,77.48,0,0,0,99,128.77a72.7,72.7,0,0,1,26,30.21A325.46,325.46,0,0,1,153.81,281.6c0,42.67-8.53,42.67-17.07,42.67ZM281.81,486.4a8.53,8.53,0,0,1-8.53,8.53h-51.2c29.87-55,21.76-141.31-28.16-185.6a168.62,168.62,0,0,1,108.37,69.38C278.23,412.5,281.81,433,281.81,486.4ZM247.68,17.07a24.06,24.06,0,0,1,21.08,8.53c6,8.53,6,23.38,0,40.19a189.87,189.87,0,0,0-7.25,92.33A252.07,252.07,0,0,0,274.22,208a17.92,17.92,0,0,0,32.43,2c12.8-23.13,35.41-66.56,42.67-97.19,8.53-32.43,23.55-36.18,34.13-36.18,4.1,0,8.53,6,8.53,17.07,0,20.22-68.27,74.5-68.27,136.53v51.2a126.63,126.63,0,0,1-101.89-62.12,18.26,18.26,0,0,0,5.12-7.94,310.19,310.19,0,0,0,10.33-71.94,190.89,190.89,0,0,0-11.43-73.22c-8-25.09-6-49.15,21.85-49.15Zm-107,135.17a88.83,88.83,0,0,0-32-37.55,60.59,60.59,0,0,1-16-17.07c-12.89-19.37-.94-37.89,18.52-37.89,7.85,0,31.66,0,34.13,44.2a64.68,64.68,0,0,0,4.35,19.71c9.73,24.92,28.76,70.23,47.1,93.35a18,18,0,0,0,8.53,5.89,143.45,143.45,0,0,0,119.21,75.78c0,25.09,1.37,43.35-12.29,65.37a181.67,181.67,0,0,0-141.31-73.9,331.43,331.43,0,0,0-30.21-137.9Zm28,159.83c34.47,21.76,53.42,62,53.42,114.6a135.94,135.94,0,0,1-18.6,65.54,7.85,7.85,0,0,1-2-3.33c-23.55-80.73-76.8-159.57-160.34-146-17.75,2.9-30.46-16.38-20.39-27.73a30.55,30.55,0,0,1,22.19-7.94c21.16,0,40.62,34.13,93.87,34.13C156.2,341.33,165,330.58,168.66,312.06Z"/></g></g></g></svg>